<svg xmlns="http://www.w3.org/2000/svg" viewBox="0 0 64 64">
  <defs>
    <linearGradient id="g" x1="0" y1="0" x2="1" y2="1">
      <stop offset="0%" stop-color="#2563eb"/>
      <stop offset="100%" stop-color="#1d4ed8"/>
    </linearGradient>
  </defs>
  <rect width="64" height="64" rx="14" fill="url(#g)"/>
  <path d="M14 38c0-2.2 1.8-4 4-4h28c2.2 0 4 1.8 4 4v6h-4a4 4 0 0 1-8 0h-12a4 4 0 0 1-8 0h-4v-6z" fill="#fff"/>
  <path d="M19 32l3-8a4 4 0 0 1 3.7-2.5h12.6A4 4 0 0 1 42 24l3 8H19z" fill="#fff"/>
  <circle cx="22" cy="44" r="3" fill="#1d4ed8"/>
  <circle cx="42" cy="44" r="3" fill="#1d4ed8"/>
</svg>
